<?xml version="1.0" encoding="utf-8"?>
<!-- Generator: Adobe Illustrator 19.0.0, SVG Export Plug-In . SVG Version: 6.00 Build 0)  -->
<svg version="1.1" id="Layer_1" xmlns="http://www.w3.org/2000/svg" xmlns:xlink="http://www.w3.org/1999/xlink" x="0px" y="0px"
	 viewBox="0 0 218 177.5" style="enable-background:new 0 0 218 177.5;" xml:space="preserve">
<style type="text/css">
	.st0{fill:#D1D3D4;}
</style>
<g id="XMLID_104_">
	<g id="XMLID_13_">
		<g id="XMLID_26_">
			<g id="XMLID_27_">
				<path id="XMLID_28_" class="st0" d="M140,83c-3-3.1-6.9-5.3-11.3-6.2v-2.7c0-0.6-0.2-1.2-0.7-1.6c-0.5-0.4-1-0.7-1.6-0.7h-1.2
					l-0.1-11.7c0-0.7-0.5-1.1-1.1-1.1c-0.7,0-1.1,0.5-1.1,1.1l0.1,11.7h-1.2c-0.6,0-1.2,0.2-1.6,0.7c-0.4,0.5-0.7,1-0.7,1.6v2.7
					c-4.6,1-8.6,3.2-11.7,6.3c-4.2,4.2-6.7,9.8-6.7,16.2c0,0.7,0.5,1.1,1.1,1.1h12.1c0.3,2.2,1.2,4.2,2.7,5.7
					c1.7,1.7,4.2,2.8,6.8,2.8c2.7,0,5.1-1.1,6.8-2.8c1.5-1.5,2.4-3.5,2.7-5.7h12.1c0.7,0,1.1-0.5,1.1-1.1
					C146.6,92.9,144.1,87.2,140,83z M121.6,74.2h4.7v2.3c-0.1,0-0.1,0-0.2,0c-0.2,0-0.2,0-0.4,0c-0.6-0.1-1.3-0.1-1.9-0.1
					c-0.6-0.1-1.2,0-1.8,0c-0.2,0-0.3,0-0.5,0.1V74.2z M129.1,104.4c-1.4,1.4-3.2,2.1-5.2,2.1c-2,0-3.9-0.8-5.2-2.1
					c-1.1-1.1-1.8-2.4-2-4h7.2h7.3C130.9,101.9,130.2,103.3,129.1,104.4z M132.4,98h-8.5h-8.5h-12c0.3-5.2,2.5-9.9,6-13.3
					c3.2-3.2,7.3-5.3,12-5.8c0.2,0,0.4-0.1,0.5-0.1c0.6-0.1,1.3-0.1,1.9-0.1c0.7,0,1.3,0,2,0.1c0.2,0,0.4,0.1,0.5,0.1
					c4.7,0.5,8.9,2.7,12,5.8c3.5,3.5,5.7,8.1,6,13.3H132.4z"/>
			</g>
		</g>
		<g id="XMLID_23_">
			<g id="XMLID_24_">
				<path id="XMLID_5_" class="st0" d="M123.9,110.4c-0.7,0-1.1,0.5-1.1,1.1v6.3c0,0.7,0.5,1.1,1.1,1.1c0.7,0,1.1-0.5,1.1-1.1v-6.3
					C125.1,110.9,124.6,110.4,123.9,110.4z"/>
			</g>
		</g>
		<g id="XMLID_20_">
			<g id="XMLID_21_">
				<path id="XMLID_4_" class="st0" d="M134.3,114.8l-3.2-5.5c-0.3-0.5-1.1-0.8-1.6-0.5s-0.8,1.1-0.5,1.6l3.2,5.5
					c0.3,0.5,1.1,0.8,1.6,0.5C134.4,116,134.6,115.3,134.3,114.8z"/>
			</g>
		</g>
		<g id="XMLID_17_">
			<g id="XMLID_18_">
				<path id="XMLID_3_" class="st0" d="M140.7,107.6l-5.5-3.2c-0.5-0.3-1.3-0.2-1.6,0.5c-0.3,0.5-0.2,1.3,0.5,1.6l5.5,3.2
					c0.5,0.3,1.3,0.2,1.6-0.5C141.4,108.6,141.3,107.9,140.7,107.6z"/>
			</g>
		</g>
		<g id="XMLID_14_">
			<g id="XMLID_15_">
				<path id="XMLID_2_" class="st0" d="M114.2,104.8c-0.3-0.5-1.1-0.8-1.6-0.5l-5.5,3.2c-0.5,0.3-0.8,1.1-0.5,1.6s1.1,0.8,1.6,0.5
					l5.5-3.2C114.3,106,114.5,105.4,114.2,104.8z"/>
			</g>
		</g>
		<g id="XMLID_11_">
			<g id="XMLID_12_">
				<path id="XMLID_1_" class="st0" d="M118.3,108.8c-0.5-0.3-1.3-0.1-1.6,0.5l-3.2,5.5c-0.3,0.5-0.2,1.3,0.5,1.6
					c0.5,0.3,1.3,0.2,1.6-0.5l3.2-5.5C119.1,109.9,118.9,109.2,118.3,108.8z"/>
			</g>
		</g>
	</g>
	<rect id="XMLID_45_" x="122.8" class="st0" width="2" height="71.7"/>
	<g id="XMLID_44_">
		<path id="XMLID_58_" class="st0" d="M178,77.6c-1.7,2.2-2.6,4.9-2.6,7.7c0,3.5,1.4,6.7,3.8,9.1c2.5,2.4,5.7,3.7,9.2,3.7
			c3.4,0,6.5-1.4,8.9-3.8c2.4-2.4,3.7-5.6,3.7-8.9c0-2.9-0.9-5.6-2.6-7.9c-2.8-3.7-4.4-8.2-4.4-12.8v-5c0-2.2-1.8-4-4-4h-3.7
			c-2.2,0-4,1.8-4,4v5C182.4,69.4,180.9,73.9,178,77.6z M197.1,78.6c1.5,2,2.3,4.4,2.3,6.9c-0.1,6-5,11-11,11.1c-3,0-5.9-1.1-8-3.2
			c-2.1-2.1-3.3-4.9-3.3-8c0-2.5,0.8-4.8,2.3-6.8c3-4,4.7-8.6,4.7-13.5h8.4C192.5,69.9,194.2,74.7,197.1,78.6z M192.4,60.4v0.7
			l-8.4-1v-0.3c0-0.1,0-0.3,0-0.4L192.4,60.4z M192.4,62.8v0.7H184v-1.7L192.4,62.8z M190.1,57.5c0.9,0,1.7,0.5,2.1,1.2l-7.1-0.8
			c0.4-0.3,0.8-0.4,1.3-0.4L190.1,57.5L190.1,57.5z"/>
		<path id="XMLID_37_" class="st0" d="M196.4,84.1c0.1,0.4,0.1,0.9,0.1,1.3c0,0.5,0.4,0.8,0.8,0.8c0.5,0,0.8-0.4,0.8-0.8
			c0-0.5,0-1.1-0.1-1.6c-0.1-0.4-0.4-0.7-0.8-0.7c0,0-0.1,0-0.1,0C196.6,83.3,196.3,83.7,196.4,84.1L196.4,84.1z"/>
		<path id="XMLID_36_" class="st0" d="M191.5,71.7c-0.1,0-0.2,0-0.3,0c-0.4,0.1-0.7,0.6-0.5,1c0.9,2.8,2.3,5.4,4,7.7
			c0.3,0.4,0.6,0.8,0.8,1.2c0.2,0.4,0.7,0.6,1.1,0.4c0.4-0.2,0.6-0.7,0.4-1.1c-0.3-0.5-0.6-1-0.9-1.5c-1.7-2.2-2.9-4.6-3.8-7.2
			C192.2,71.9,191.9,71.7,191.5,71.7L191.5,71.7z"/>
		<path id="XMLID_35_" class="st0" d="M179.6,82.6c0.4,0.2,0.9,0,1.1-0.4c0.3-0.6,0.6-1.2,1-1.7c0.3-0.4,0.2-0.9-0.2-1.2
			c-0.1-0.1-0.3-0.2-0.5-0.2c-0.2,0-0.5,0.1-0.7,0.3c-0.5,0.6-0.9,1.3-1.2,2.1C179,81.9,179.2,82.4,179.6,82.6L179.6,82.6z"/>
		<path id="XMLID_34_" class="st0" d="M188.2,93.6c-4.5,0-8.2-3.7-8.2-8.2c0-0.3,0-0.5,0-0.8c0-0.5-0.3-0.9-0.7-0.9c0,0-0.1,0-0.1,0
			c-0.4,0-0.8,0.3-0.8,0.7c0,0.3,0,0.6,0,0.9c0,5.4,4.4,9.9,9.9,9.9c0.5,0,0.8-0.4,0.8-0.8S188.7,93.6,188.2,93.6L188.2,93.6z"/>
		<path id="XMLID_33_" class="st0" d="M188.2,99.6c-0.5,0-0.8,0.4-0.8,0.8v4.6c0,0.5,0.4,0.8,0.8,0.8s0.8-0.4,0.8-0.8v-4.6
			C189.1,100,188.7,99.6,188.2,99.6z"/>
		<path id="XMLID_32_" class="st0" d="M196.6,98c-0.2-0.3-0.4-0.4-0.7-0.4c-0.1,0-0.3,0-0.4,0.1c-0.4,0.2-0.5,0.7-0.3,1.1l2.3,4
			c0.2,0.4,0.7,0.5,1.1,0.3c0.4-0.2,0.5-0.7,0.3-1.1L196.6,98z"/>
		<path id="XMLID_31_" class="st0" d="M170.7,76l4,2.3c0.4,0.2,0.9,0.1,1.1-0.3c0.2-0.4,0.1-0.9-0.3-1.1l-4-2.3
			c-0.1-0.1-0.3-0.1-0.4-0.1c-0.3,0-0.6,0.1-0.7,0.4C170.1,75.3,170.3,75.8,170.7,76L170.7,76z"/>
		<path id="XMLID_30_" class="st0" d="M205.8,94.4l-4-2.3c-0.1-0.1-0.3-0.1-0.4-0.1c-0.3,0-0.6,0.1-0.7,0.4
			c-0.2,0.4-0.1,0.9,0.3,1.1l4,2.3c0.4,0.2,0.9,0.1,1.1-0.3C206.3,95.2,206.2,94.7,205.8,94.4z"/>
		<path id="XMLID_29_" class="st0" d="M168.4,86.1h4.6c0.5,0,0.8-0.4,0.8-0.8s-0.4-0.8-0.8-0.8h-4.6c-0.5,0-0.8,0.4-0.8,0.8
			S168,86.1,168.4,86.1z"/>
		<path id="XMLID_25_" class="st0" d="M202.6,85.2c0,0.5,0.4,0.8,0.8,0.8h4.6c0.5,0,0.8-0.4,0.8-0.8s-0.4-0.8-0.8-0.8h-4.6
			C203,84.4,202.6,84.8,202.6,85.2z"/>
		<path id="XMLID_22_" class="st0" d="M175.1,92c-0.1,0-0.3,0-0.4,0.1l-4,2.3c-0.4,0.2-0.5,0.7-0.3,1.1c0.2,0.4,0.7,0.5,1.1,0.3
			l4-2.3c0.4-0.2,0.5-0.7,0.3-1.1C175.6,92.2,175.3,92,175.1,92L175.1,92z"/>
		<path id="XMLID_19_" class="st0" d="M201.8,78.3l4-2.3c0.4-0.2,0.5-0.7,0.3-1.1c-0.2-0.3-0.4-0.4-0.7-0.4c-0.1,0-0.3,0-0.4,0.1
			l-4,2.3c-0.4,0.2-0.5,0.7-0.3,1.1C200.9,78.4,201.4,78.6,201.8,78.3z"/>
		<path id="XMLID_16_" class="st0" d="M181,97.7c-0.1-0.1-0.3-0.1-0.4-0.1c-0.3,0-0.6,0.1-0.7,0.4l-2.3,4c-0.2,0.4-0.1,0.9,0.3,1.1
			c0.4,0.2,0.9,0.1,1.1-0.3l2.3-4C181.6,98.4,181.4,97.9,181,97.7L181,97.7z"/>
	</g>
	<rect id="XMLID_10_" x="187.7" y="0.3" class="st0" width="1.4" height="55.9"/>
	<g id="XMLID_67_">
		<g id="XMLID_93_">
			<g id="XMLID_94_">
				<path id="XMLID_95_" class="st0" d="M46.3,77.6c-0.2-0.2-0.4-0.3-0.7-0.3v0l-2.7-0.4l-1.2-2.6c-0.3-0.6-1-0.9-1.6-0.6
					c-0.3,0.1-0.5,0.3-0.6,0.6l-1.2,2.6l-2.7,0.4c-0.7,0.1-1.1,0.7-1,1.4c0,0.2,0.2,0.5,0.3,0.7l2,2l-0.5,2.9
					c-0.1,0.7,0.3,1.3,1,1.4c0.3,0,0.5,0,0.8-0.1l2.4-1.3l2.4,1.3c0.6,0.3,1.3,0.1,1.6-0.5c0.1-0.2,0.2-0.5,0.1-0.8l-0.5-2.9l2-2
					C46.7,78.8,46.7,78,46.3,77.6z M42.2,80.1c-0.3,0.3-0.4,0.7-0.3,1l0.2,1l-0.8-0.4c-0.4-0.2-0.8-0.2-1.2,0l-0.8,0.4l0.2-1
					c0.1-0.4-0.1-0.8-0.3-1l-0.8-0.8l1-0.2c0.4-0.1,0.7-0.3,0.9-0.7l0.4-0.8l0.4,0.8c0.2,0.4,0.5,0.6,0.9,0.7l1,0.2L42.2,80.1z"/>
			</g>
		</g>
		<g id="XMLID_88_">
			<g id="XMLID_89_">
				<path id="XMLID_90_" class="st0" d="M61.8,72.2c-0.2-0.2-0.4-0.3-0.7-0.3v0l-4.3-0.7l-1.9-4.1c-0.3-0.6-1-0.9-1.6-0.6
					c-0.3,0.1-0.5,0.3-0.6,0.6l-1.9,4.1l-4.3,0.7c-0.7,0.1-1.1,0.7-1,1.4c0,0.2,0.2,0.5,0.3,0.7l3.2,3.2l-0.7,4.6
					c-0.1,0.7,0.3,1.3,1,1.4c0.3,0,0.5,0,0.8-0.1l3.8-2.1l3.8,2.1c0.6,0.3,1.3,0.1,1.6-0.5c0.1-0.2,0.2-0.5,0.1-0.8l-0.8-4.6
					l3.2-3.2C62.3,73.5,62.3,72.7,61.8,72.2z M56.5,75.9c-0.3,0.3-0.4,0.7-0.3,1l0.5,2.8l-2.3-1.3c-0.4-0.2-0.8-0.2-1.2,0l-2.3,1.3
					l0.5-2.8c0.1-0.4-0.1-0.8-0.3-1l-2-2l2.7-0.4c0.4-0.1,0.7-0.3,0.9-0.7l1.1-2.4l1.1,2.4c0.2,0.4,0.5,0.6,0.9,0.7l2.7,0.4
					L56.5,75.9z"/>
			</g>
		</g>
		<g id="XMLID_68_">
			<g id="XMLID_69_">
				<path id="XMLID_70_" class="st0" d="M80.7,21.1h-5.5l3.6-3.6h1.9c0.7,0,1.2-0.5,1.2-1.2c0-0.7-0.5-1.2-1.2-1.2H10.2
					c-0.7,0-1.2,0.5-1.2,1.2c0,0.7,0.5,1.2,1.2,1.2h5.5l-3.6,3.6h-1.9c-0.7,0-1.2,0.5-1.2,1.2c0,0.7,0.5,1.2,1.2,1.2h3.6l0,4.6
					l-2.2,2.3c-2,2.1-1.9,5.4,0.2,7.4l4.9,4.7c0.2,0.2,0.5,0.3,0.8,0.3h0c0.1,0,0.3,0,0.4-0.1l13.3,19.1l-6.6,19.9
					c-0.2,0.6,0.1,1.3,0.8,1.5c0.6,0.2,1.3-0.1,1.5-0.8l6.1-18.2l3.8,5.4c0.4,0.5,1.1,0.7,1.7,0.3c0.5-0.4,0.7-1.1,0.3-1.7l-4.8-6.9
					l7.3-21.9c0-0.1,0.1-0.2,0.1-0.4h7.2c0,0.1,0,0.3,0.1,0.4l5.2,14.4l-5,7.2c-0.4,0.5-0.3,1.3,0.2,1.7c0.5,0.4,1.3,0.3,1.7-0.2
					c0,0,0,0,0-0.1l4.1-5.8L64,82.3c0.2,0.5,0.6,0.8,1.1,0.8c0.1,0,0.3,0,0.4-0.1c0.6-0.2,0.9-0.9,0.7-1.5l-9.9-27.4L66.9,39
					l7.6,2.6l-8.2,32.9c-0.2,0.6,0.2,1.3,0.9,1.4c0,0,0,0,0,0c0.1,0,0.2,0,0.3,0c0.5,0,1-0.4,1.2-0.9l8.1-32.7c0.1,0,0.2,0,0.2,0
					c0.5,0,1-0.3,1.1-0.8l2.2-6.4c0.9-2.7-0.5-5.7-3.2-6.6l-0.1,0v-5.1h3.6c0.7,0,1.2-0.5,1.2-1.2C81.8,21.6,81.3,21.1,80.7,21.1z
					 M75.4,17.5l-3.1,3.1l-3.1-3.1C69.2,17.5,75.4,17.5,75.4,17.5z M69.4,21.1h-6.2l3.1-3.1L69.4,21.1z M63.4,17.5l-3.1,3.1
					l-3.1-3.1C57.3,17.5,63.4,17.5,63.4,17.5z M57.5,21.1h-6.2l3.1-3.1L57.5,21.1z M51.5,17.5l-3.1,3.1l-3.1-3.1
					C45.3,17.5,51.5,17.5,51.5,17.5z M45.5,21.1h-6.2l3.1-3.1L45.5,21.1z M39.6,17.5l-3.1,3.1l-3.1-3.1
					C33.4,17.5,39.6,17.5,39.6,17.5z M33.6,21.1h-6.2l3.1-3.1L33.6,21.1z M27.6,17.5l-3.1,3.1l-3.1-3.1H27.6z M18.6,18l3.1,3.1h-6.2
					L18.6,18z M17.5,39.7l-4-3.8c-1.1-1.1-1.2-2.9-0.1-4l2.7-2.8c0.5-0.5,1.2-0.9,2-0.9h0.1c0.7,0,1.4,0.3,1.9,0.8l4,3.8L17.5,39.7z
					 M32.2,58.8l-12.5-18l5-5.2L37,43.6c0.1,0,0.1,0.1,0.2,0.1L32.2,58.8z M38.8,39L38,41.3l-11.7-7.4l0.3-0.3
					c0.5-0.5,0.4-1.2,0-1.7l0,0l-4.9-4.7c-1-1-2.3-1.5-3.7-1.4c-0.6,0-1.2,0.1-1.8,0.4l0-2.8h27.4v2.4h-0.8c-2.9,0-5.2,2.3-5.2,5.2
					v6.7C37.7,38.4,38.2,38.9,38.8,39z M49.6,36.6h-9.6V31c0-1.6,1.3-2.8,2.8-2.8h3.9c1.6,0,2.8,1.3,2.8,2.8V36.6z M66.8,30.5
					l-2.2,6.4c-0.1,0.3-0.1,0.6,0.1,0.9c0,0,0,0.1,0.1,0.1l-9.4,13.4L50.9,39c0.6,0,1.1-0.6,1.1-1.2V31c0-2.9-2.3-5.2-5.2-5.2H46
					v-2.4h28.7v4.3l-1.3-0.4C70.7,26.4,67.8,27.8,66.8,30.5z M78.1,34.4l-1.8,5.2l-9-3.1l1.8-5.2c0.5-1.5,2.1-2.3,3.6-1.8
					c0,0,0,0,0,0l3.7,1.3C77.8,31.3,78.6,32.9,78.1,34.4z"/>
			</g>
		</g>
	</g>
	<rect id="XMLID_71_" x="44.1" y="0" class="st0" width="1.5" height="15.1"/>
</g>
</svg>
